
	<svg xmlns="http://www.w3.org/2000/svg" xmlns:xlink="http://www.w3.org/1999/xlink" version="1.1" width="141" height="141" viewBox="0 0 100 100">


		<defs>
			<linearGradient id="middle-1-gradient" gradientUnits="userSpaceOnUse" x1="50" y1="98" x2="50" y2="2" spreadMethod="pad">
			<stop offset="0%" stop-color="#FFFFFF" stop-opacity="0.1"/>
			<stop offset="100%" stop-color="#FFFFFF" stop-opacity="0.5"/>
		</linearGradient><linearGradient id="gloss-top-gradient" gradientUnits="userSpaceOnUse" x1="50" y1="70" x2="50" y2="6" spreadMethod="pad">
			<stop offset="0%" stop-color="#FFFFFF" stop-opacity="0"/>
			<stop offset="100%" stop-color="#FFFFFF" stop-opacity="0.4"/>
		</linearGradient><linearGradient id="gloss-right-gradient" gradientUnits="userSpaceOnUse" x1="37" y1="24" x2="92" y2="57" spreadMethod="pad">
			<stop offset="0%" stop-color="#FFFFFF" stop-opacity="0"/>
			<stop offset="100%" stop-color="#FFFFFF" stop-opacity="0.4"/>
		</linearGradient><linearGradient id="gloss-left-gradient" gradientUnits="userSpaceOnUse" x1="63" y1="57" x2="8" y2="24" spreadMethod="pad">
			<stop offset="0%" stop-color="#FFFFFF" stop-opacity="0"/>
			<stop offset="100%" stop-color="#FFFFFF" stop-opacity="0.4"/>
		</linearGradient><g id="background">
			<path fill="url(#background-gradient)" stroke="none" d=" M 96.1 30.55 Q 92.25 21.6 85.35 14.65 78.45 7.75 69.5 3.95 60.2 0 50.05 0 39.85 0 30.55 3.95 21.55 7.75 14.65 14.65 7.75 21.6 3.95 30.55 0 39.85 0 50.05 0 60.2 3.95 69.5 7.75 78.45 14.65 85.35 21.55 92.25 30.55 96.1 39.85 100 50.05 100 60.2 100 69.5 96.1 78.45 92.25 85.35 85.35 92.25 78.45 96.1 69.5 100 60.2 100 50.05 100 39.85 96.1 30.55 Z"/>
		</g><g id="middle-1">
			<path fill="url(#middle-1-gradient)" stroke="none" d=" M 94.1 31.45 Q 90.45 22.85 83.85 16.2 77.2 9.6 68.65 6 59.75 2.2 50.05 2.2 40.3 2.2 31.4 6 22.8 9.6 16.2 16.2 9.6 22.85 5.95 31.45 2.2 40.3 2.2 50.05 2.2 59.75 5.95 68.65 9.6 77.2 16.2 83.85 22.8 90.45 31.4 94.1 40.3 97.85 50.05 97.85 59.75 97.85 68.65 94.1 77.2 90.45 83.85 83.85 90.45 77.2 94.1 68.65 97.85 59.75 97.85 50.05 97.85 40.3 94.1 31.45 M 82.5 17.55 Q 88.85 23.9 92.4 32.15 96 40.7 96 50.05 96 59.4 92.4 67.9 88.85 76.15 82.5 82.5 76.15 88.85 67.9 92.4 59.4 96 50.05 96 40.7 96 32.15 92.4 23.9 88.85 17.55 82.5 11.15 76.15 7.65 67.9 4.05 59.4 4.05 50.05 4.05 40.7 7.65 32.15 11.15 23.9 17.55 17.55 23.9 11.15 32.15 7.7 40.7 4.05 50.05 4.05 59.4 4.05 67.9 7.7 76.15 11.15 82.5 17.55 Z"/>
		</g><mask id="mask">
			<path fill="#FFFFFF" stroke="none" d=" M 96.1 30.5 Q 92.25 21.55 85.35 14.65 78.45 7.7 69.5 3.9 60.2 0 50.05 0 39.85 0 30.55 3.9 21.55 7.7 14.65 14.65 7.75 21.55 3.95 30.5 0 39.85 0 50 0 60.15 3.95 69.45 7.75 78.4 14.65 85.3 21.55 92.25 30.55 96.05 39.85 100 50.05 100 60.2 100 69.5 96.05 78.45 92.25 85.35 85.3 92.25 78.4 96.1 69.45 100 60.15 100 50 100 39.85 96.1 30.5 Z"/>
		</mask><g id="gloss-top">
			<path fill="url(#gloss-top-gradient)" stroke="none" d=" M 81.5 40.8 Q 84.2 36.05 84.2 30.9 84.2 25.7 81.5 21 78.95 16.4 74.2 12.9 64.2 5.45 50.05 5.45 35.8 5.45 25.8 12.9 15.8 20.35 15.8 30.9 15.8 41.45 25.8 48.9 35.8 56.35 50.05 56.35 64.2 56.35 74.2 48.9 78.95 45.4 81.5 40.8 Z"/>
		</g><g id="gloss-left">
			<path fill="url(#gloss-left-gradient)" stroke="none" d=" M 72.2 5.2 Q 61.75 0 50.05 0 39.85 0 30.55 3.95 21.55 7.75 14.65 14.65 7.75 21.6 3.95 30.55 0 39.85 0 50.05 0 59.65 3.55 68.6 7 77.15 13.3 84 13.5 78.65 17.05 71.95 24 58.6 40.6 51.7 57.1 44.85 66.3 24.35 69.15 17.95 70.95 10.95 72.2 5.25 72.2 5.2 Z"/>
		</g><g id="gloss-right">
			<path fill="url(#gloss-right-gradient)" stroke="none" d=" M 96.1 30.55 Q 92.25 21.6 85.35 14.65 78.45 7.75 69.45 3.95 60.15 0 50 0 38.25 0 27.8 5.2 27.8 5.25 29 10.95 30.85 17.95 33.7 24.35 42.9 44.85 59.4 51.7 76 58.6 83 71.95 86.5 78.65 86.7 84 93 77.15 96.45 68.6 100 59.65 100 50.05 100 39.85 96.1 30.55 Z"/>
		</g><g id="x-icon">
			<path fill="#FF0000" fill-opacity="0" stroke="none" d=" M 57.8 42.2 L 42.2 42.2 42.2 57.8 57.8 57.8 57.8 42.2 Z"/>
		</g><linearGradient id="x-background-gradient" x1="0" y1="0" y2="1" x2="0">
			<stop stop-color="#22D3B3" offset="0%"/>
			<stop stop-color="#01163E" offset="100%"/>
		</linearGradient>
			
	<linearGradient id="background-gradient" x1="0" y1="0" y2="1" x2="0" >
		<stop stop-color="#16a4c3" offset="0%"/>
		<stop stop-color="#0634A7" offset="100%"/>
	</linearGradient>

			
			
			<g transform="scale(0.48634824570738455) translate(-54.693016052246094 -36.54299545288086)" id="picture"><path d="M185.698 101.7c-.478-1.734-1.194-3.22-1.911-4.707-.956-1.734-1.912-3.22-3.107-4.707-.956-1.239-2.15-2.23-3.346-3.22-1.433-.992-2.867-1.983-4.301-2.726-1.912-.99-3.824-1.486-5.974-1.982l-1.195-.247h-.478c5.257-2.973 9.08-8.672 9.08-15.608 0-9.662-7.646-17.59-16.966-17.59s-16.967 7.928-16.967 17.59c0 6.689 3.585 12.635 9.08 15.608h-1.91l-1.913.495c-1.433.496-2.867.991-4.301 1.734-1.434.743-2.868 1.734-4.302 2.725-1.433.991-2.628 2.23-3.584 3.469l-2.15 2.973c-.718.99-1.196 2.23-1.674 3.468-.478 1.239-.956 2.725-1.195 4.212l-.238 1.734c0 1.982-.24 4.955-.24 6.442v9.91c0 .247 1.673 1.734 3.824 2.725 0 0 1.195.495 3.824 1.238 6.93 1.982 14.577 3.221 22.702 3.221 7.408 0 14.816-.991 21.268-2.725 2.39-.743 3.107-.991 3.107-.991 2.15-.743 3.823-1.734 3.823-2.23V110.62s-.239-3.964-.239-6.193c0 .247 0-.496-.717-2.726zm28.916-11.644s0-.495-.717-2.725c-.478-1.734-1.195-3.22-1.912-4.707-.956-1.734-1.912-3.22-3.106-4.707-.956-1.239-2.151-2.23-3.346-3.22-1.434-.992-2.868-1.983-4.301-2.726-1.912-.991-3.824-1.486-5.975-1.982l-1.195-.248h-.478c5.258-2.973 9.081-8.67 9.081-15.608 0-9.662-7.647-17.59-16.967-17.59-8.364 0-15.533 6.442-16.728 14.865 5.258 3.716 8.603 10.158 8.603 17.095v.743s.24 0 .24.248h-.24c-.239 4.707-1.911 9.414-5.018 12.882.717.248 1.195.496 1.912.744 1.673.743 3.345 1.982 5.018 2.973 1.434.99 2.629 2.23 3.824 3.716 1.434 1.734 2.628 3.468 3.584 5.45.956 1.734 1.673 3.469 2.151 5.203.478 1.734.717 2.973.717 3.468.239 2.478.239 5.203.239 6.442v2.973c6.213-.248 12.426-1.24 17.923-2.726 2.39-.743 3.106-.99 3.106-.99 2.151-.744 3.824-1.735 3.824-2.23V95.507c0-.496-.24-3.22-.24-5.45zm-83.4.744c1.194-1.487 2.628-2.973 4.062-3.964 1.433-1.239 3.106-2.23 4.78-3.22.716-.249 1.433-.744 2.15-.992-2.868-3.468-4.78-7.928-5.019-12.883h-.239.24v-.743c0-7.185 3.345-13.378 8.602-17.094-1.194-8.424-8.125-14.865-16.728-14.865-9.32 0-16.728 7.928-16.728 17.59 0 6.689 3.585 12.635 9.081 15.608h-1.911l-1.912.495c-1.434.496-2.868.991-4.302 1.735-1.194.247-2.628 1.238-4.062 2.23-1.434.99-2.629 2.229-3.585 3.468l-2.15 2.973c-.717.99-1.195 2.23-1.673 3.468-.478 1.239-.956 2.725-1.195 4.212l-.239 1.734c-.239 1.982-.239 4.707-.239 6.441v9.91c0 .248 1.673 1.734 3.824 2.725 0 0 1.194.496 3.823 1.24 5.496 1.486 11.232 2.724 17.445 2.972v-1.982c0-1.734 0-4.707.239-6.69v-.247l.478-1.982c.239-1.486.717-3.22 1.434-4.707a30.024 30.024 0 0 1 1.911-3.964c.24-1.239 1.195-2.477 1.912-3.468zm80.369 142.213l-6.073-31.406c-.714-3.976-4.643-7.156-8.93-7.156h-.357c4.644 0 8.216-3.975 8.216-8.746v-46.116c0-2.385-.715-4.373-2.144-5.963-1.428-1.988-3.929-2.783-6.072-2.783h-76.444c-4.644 0-8.216 3.975-8.216 8.746v46.513c0 4.374 3.572 8.349 8.216 8.349h-1.429c-4.286 0-8.216 3.18-8.93 7.553l-5.001 31.407c-.357 1.988 0 4.373 1.429 5.963 1.429 1.988 3.572 2.783 6.072 2.783h92.161c2.5 0 4.644-1.193 6.073-3.18 1.072-1.59 1.786-3.578 1.429-5.964zm-92.875-47.308v-46.116c0-.397.357-.795 1.071-.795h76.444c.357 0 .714 0 1.071.795l-.357 46.513c0 .398-.357.796-1.071.796h-76.087c-.714-.398-1.071-.796-1.071-1.193zm85.373 48.501h-92.518l5.001-30.611c0-.398.715-.795 1.786-.795h77.873c1.071 0 1.786.795 2.143 1.192l5.715 30.214zm-12.145-11.926h-67.87c-1.072 0-1.786.795-1.786 1.987s.714 1.988 1.786 1.988h67.87c1.072 0 1.786-.795 1.786-1.988s-.714-1.987-1.786-1.987zm-48.938-7.951h45.366c1.072 0 1.786-.796 1.786-1.988s-.714-1.988-1.786-1.988h-45.366c-1.072 0-1.786.795-1.786 1.988s.714 1.988 1.786 1.988zm-15.36 0h7.501c1.072 0 1.786-.796 1.786-1.988s-.714-1.988-1.786-1.988h-7.501c-1.072 0-1.786.795-1.786 1.988s.714 1.988 1.786 1.988z"/></g>
			
	<linearGradient id="picture-gradient" x1="0" y1="0" y2="1" x2="0" >
		<stop stop-color="#eaeeea" offset="0%"/>
		<stop stop-color="#e5eff9" offset="100%"/>
	</linearGradient>

		</defs>

		

			<use xlink:href="#background" fill="url(#background-gradient)" />

		<use xlink:href="#middle-1" />

			<g mask="url(#mask)">
				<g transform="
				        translate(
                                50 50
)
                            translate(0 0)  scale(0.65)  
                            translate(
                                -50 -50
)">
						<use xlink:href="#picture" fill="url(#picture-gradient)"  />
				</g>
			</g>

		

			<use xlink:href="#gloss-top" opacity="1" />


	</svg>
